<svg xmlns="http://www.w3.org/2000/svg" viewBox="0 0 1700 1280">
  <g id="b8127029-a0aa-46ed-8be7-98e20e8157fc" data-name="LOGO FOR PRINT">
    <path d="M792.123,293.205c61.882-120.723,250.416-203.073,353.959-150.637,130.158,65.915,138.8,351.287,48.434,545.139-81.934,175.764-257.381,101.263-256.65,212,1.29,195.355,439.509,337.188,466.034,346.065,347.164,116.187-163.8-87.67-259.787-248.932-75.394-126.67,200.129-166.547,296.73-371.676,83.506-177.322,72.143-446.452-72.621-562.075-229.9-183.622-726.992,75.23-732.937,246.249-2.3,66.251,68.286,142.831,102.966,134.3C769.3,436,755.818,364.032,792.123,293.205Z" style="fill: #fff"/>
    <g>
      <path d="M104.748,597.031a2.131,2.131,0,0,1,0,3.6,5.037,5.037,0,0,1-2.969.72H67.6a4.661,4.661,0,0,1-2.788-.72,2.129,2.129,0,0,1,0-3.6,4.343,4.343,0,0,1,2.608-.72,5.123,5.123,0,0,0,4.767-3.419q1.351-3.237,1.35-12.592V496.468q0-9.353-1.35-12.593a5.126,5.126,0,0,0-4.767-3.418,5.341,5.341,0,0,1-2.608-.9,2.011,2.011,0,0,1-.99-1.618,2.153,2.153,0,0,1,.99-1.8,4.682,4.682,0,0,1,2.788-.719H86.847q5.035,0,6.657.629t1.978,3.059a88.4,88.4,0,0,1,.36,10.164V580.3q0,9.356,1.35,12.592a5.12,5.12,0,0,0,4.767,3.419A4.7,4.7,0,0,1,104.748,597.031Zm70.519,0a2.13,2.13,0,0,1,0,3.6,4.675,4.675,0,0,1-2.789.72H136.139a4.659,4.659,0,0,1-2.788-.72,2.011,2.011,0,0,1-.989-1.619,2.149,2.149,0,0,1,.989-1.8,5.684,5.684,0,0,1,2.788-.9q3.057-.359,3.058-2.339,0-2.159-3.418-8.275l-29.323-50.552a7.8,7.8,0,0,1-1.439-3.6q0-1.618,3.238-1.8,18.527-.717,25.815-7.646t7.287-16.1a32.822,32.822,0,0,0-2.069-12.412q-2.072-5.035-9.355-8.546t-21.678-3.688a3.989,3.989,0,0,1-2.789-.9,2.643,2.643,0,0,1-.989-1.979,2.823,2.823,0,0,1,.989-2.159,3.735,3.735,0,0,1,2.609-.9l6.477-.18q25.183,0,37.059,8.275T163.484,506q0,10.254-8.366,17.99T131.1,534.426l29.142,50.731q4.137,6.838,6.566,8.815a9.561,9.561,0,0,0,5.667,2.159A5.71,5.71,0,0,1,175.267,597.031Z" style="fill: #fff"/>
      <path d="M227.978,597.031a2.131,2.131,0,0,1,0,3.6,5.037,5.037,0,0,1-2.969.72H190.828a4.666,4.666,0,0,1-2.789-.72,2.13,2.13,0,0,1,0-3.6,4.348,4.348,0,0,1,2.609-.72,5.123,5.123,0,0,0,4.767-3.419q1.35-3.237,1.35-12.592V496.468q0-9.353-1.35-12.593a5.126,5.126,0,0,0-4.767-3.418,5.349,5.349,0,0,1-2.609-.9,2.012,2.012,0,0,1-.989-1.618,2.155,2.155,0,0,1,.989-1.8,4.688,4.688,0,0,1,2.789-.719h34.181a5.06,5.06,0,0,1,2.969.719,2.161,2.161,0,0,1,.988,1.8,2.018,2.018,0,0,1-.988,1.618,5.655,5.655,0,0,1-2.789.9,5.123,5.123,0,0,0-4.767,3.418q-1.352,3.238-1.35,12.593V580.3q0,9.356,1.35,12.592a5.12,5.12,0,0,0,4.767,3.419A4.7,4.7,0,0,1,227.978,597.031Z" style="fill: #fff"/>
      <path d="M237.6,558.532a2.218,2.218,0,0,1,1.8-.9,2.553,2.553,0,0,1,1.708.719,3.144,3.144,0,0,1,.99,1.98q1.8,15.831,9.355,25.1t23.566,10.7q3.057.182,3.058,2.339a2.471,2.471,0,0,1-.9,1.888,4.379,4.379,0,0,1-2.518.99,100.823,100.823,0,0,1-18.35-1.259q-11.515-1.62-16.01-4.138-3.062-1.8-3.778-3.688a12.747,12.747,0,0,1-.541-5.127l.721-26.085A4.809,4.809,0,0,1,237.6,558.532Zm46.055,40.3a2.235,2.235,0,0,1,.719-1.618,2.447,2.447,0,0,1,1.8-.721,29.422,29.422,0,0,0,10.524-2.968,25.408,25.408,0,0,0,9.265-7.466,17.663,17.663,0,0,0,3.777-11.153,20.858,20.858,0,0,0-.538-4.677q-1.622-7.016-9.086-12.053T277.9,546.479q-11.871-5.4-19.429-9.534a56.542,56.542,0,0,1-13.492-10.254A26.837,26.837,0,0,1,237.6,512.3a27.592,27.592,0,0,1-.538-5.4,24.006,24.006,0,0,1,6.655-17,42.278,42.278,0,0,1,16.191-10.7A54.394,54.394,0,0,1,277.9,475.42h.18a3.008,3.008,0,0,1,2.069.719,2.136,2.136,0,0,1,.81,1.62,2.764,2.764,0,0,1-.719,1.888,3.316,3.316,0,0,1-2.16.99,29.613,29.613,0,0,0-9.084,2.968,25.827,25.827,0,0,0-8.545,6.746,15.5,15.5,0,0,0-3.6,10.254,19.332,19.332,0,0,0,1.081,6.117q1.976,6.659,9.8,11.513a178.819,178.819,0,0,0,22.4,11.154q12.59,5.4,20.238,9.624a55.727,55.727,0,0,1,13.4,10.254,23.623,23.623,0,0,1,6.655,13.943,33.943,33.943,0,0,1,.18,3.958,27.3,27.3,0,0,1-6.926,18.888,42.523,42.523,0,0,1-16.909,11.514,52.825,52.825,0,0,1-18.619,3.778Q283.653,601.348,283.655,598.829Zm39.487-82.662a2.59,2.59,0,0,1-1.888.809,2.408,2.408,0,0,1-1.71-.809,3.539,3.539,0,0,1-.99-2.07,60.476,60.476,0,0,0-3.238-16.91,23.045,23.045,0,0,0-8.544-10.884q-6.03-4.224-17-5.666a4.027,4.027,0,0,1-2.249-.9,2.123,2.123,0,0,1-.809-1.619,2.466,2.466,0,0,1,.9-1.889,3.637,3.637,0,0,1,2.519-.809,135.876,135.876,0,0,1,17.09,1.529q8.993,1.35,13.673,3.688,3.057,1.442,3.777,3.238a14.224,14.224,0,0,1,.54,5.577l-1.259,24.286A3.3,3.3,0,0,1,323.142,516.167Z" style="fill: #fff"/>
      <path d="M407.875,597.031a2.13,2.13,0,0,1,0,3.6,5.031,5.031,0,0,1-2.968.72H370.726a4.661,4.661,0,0,1-2.788-.72,2.129,2.129,0,0,1,0-3.6,4.342,4.342,0,0,1,2.609-.72,5.125,5.125,0,0,0,4.767-3.419q1.349-3.237,1.348-12.592V481l-10.612.179q-10.255.182-15.2,1.619t-6.386,3.419a9.008,9.008,0,0,0-1.619,4.857,5.417,5.417,0,0,1-.9,2.609,2.154,2.154,0,0,1-1.8.989,2.012,2.012,0,0,1-1.619-.989,4.671,4.671,0,0,1-.721-2.789V475.42h61.167V580.3q0,9.356,1.348,12.592a5.121,5.121,0,0,0,4.768,3.419A4.7,4.7,0,0,1,407.875,597.031ZM437.828,475.42v15.471a4.678,4.678,0,0,1-.72,2.789,2.02,2.02,0,0,1-1.619.989,2.15,2.15,0,0,1-1.8-.989,5.345,5.345,0,0,1-.9-2.609,8.593,8.593,0,0,0-1.619-4.768q-1.443-1.889-6.386-3.417t-15.2-1.71a5.637,5.637,0,0,1-2.88-.989,2.335,2.335,0,0,1-1.079-1.889,2.577,2.577,0,0,1,1.079-1.979,4.363,4.363,0,0,1,2.88-.9Z" style="fill: #fff"/>
      <path d="M460.046,563.749a68.522,68.522,0,0,0,9.985,21.048q6.3,8.635,14.032,10.614,3.24.722,3.239,3.239a2.752,2.752,0,0,1-.9,1.978,2.417,2.417,0,0,1-2.158.72,45.507,45.507,0,0,1-26.085-9.444,62.476,62.476,0,0,1-18.8-23.207,69.8,69.8,0,0,1,0-60.626,61.7,61.7,0,0,1,18.8-23.117,46.951,46.951,0,0,1,26.085-9.534,2.427,2.427,0,0,1,2.158.719,2.759,2.759,0,0,1,.9,1.979q0,2.522-3.239,3.238-7.737,1.983-14.032,10.524a67.257,67.257,0,0,0-9.985,21.048,89.522,89.522,0,0,0-3.688,25.456A88.585,88.585,0,0,0,460.046,563.749ZM541.36,568.7a61.69,61.69,0,0,1-18.8,23.117,46.911,46.911,0,0,1-26.085,9.534,2.416,2.416,0,0,1-2.159-.72,2.737,2.737,0,0,1-.9-1.978q0-2.519,3.239-3.239,7.731-1.977,14.031-10.524a67.258,67.258,0,0,0,9.984-21.048,89.694,89.694,0,0,0,0-50.911,67.322,67.322,0,0,0-9.984-21.048q-6.3-8.543-14.031-10.524-3.24-.717-3.239-3.238a2.745,2.745,0,0,1,.9-1.979,2.426,2.426,0,0,1,2.159-.719,46.956,46.956,0,0,1,26.085,9.534,61.7,61.7,0,0,1,18.8,23.117,69.8,69.8,0,0,1,0,60.626Z" style="fill: #fff"/>
      <path d="M592.811,597.031a2.131,2.131,0,0,1,0,3.6,5.037,5.037,0,0,1-2.969.72h-34.18a4.664,4.664,0,0,1-2.789-.72,2.129,2.129,0,0,1,0-3.6,4.348,4.348,0,0,1,2.609-.72,5.124,5.124,0,0,0,4.767-3.419q1.35-3.237,1.349-12.592V496.468q0-9.353-1.349-12.593a5.127,5.127,0,0,0-4.767-3.418,5.349,5.349,0,0,1-2.609-.9,2.013,2.013,0,0,1-.99-1.618,2.156,2.156,0,0,1,.99-1.8,4.686,4.686,0,0,1,2.789-.719h19.249q5.036,0,6.657.629t1.977,3.059a88.312,88.312,0,0,1,.361,10.164V580.3q0,9.356,1.349,12.592a5.121,5.121,0,0,0,4.767,3.419A4.7,4.7,0,0,1,592.811,597.031Zm70.52,0a2.131,2.131,0,0,1,0,3.6,4.677,4.677,0,0,1-2.789.72H624.2a4.656,4.656,0,0,1-2.787-.72,2.01,2.01,0,0,1-.99-1.619,2.148,2.148,0,0,1,.99-1.8,5.68,5.68,0,0,1,2.787-.9q3.057-.359,3.059-2.339,0-2.159-3.419-8.275L594.52,535.145a7.8,7.8,0,0,1-1.44-3.6q0-1.618,3.239-1.8,18.525-.717,25.815-7.646T629.42,506a32.8,32.8,0,0,0-2.069-12.412q-2.07-5.035-9.355-8.546t-21.677-3.688a3.986,3.986,0,0,1-2.789-.9,2.644,2.644,0,0,1-.99-1.979,2.824,2.824,0,0,1,.99-2.159,3.733,3.733,0,0,1,2.609-.9l6.477-.18q25.183,0,37.058,8.275T651.547,506q0,10.254-8.365,17.99t-24.016,10.434l29.143,50.731q4.137,6.838,6.566,8.815a9.558,9.558,0,0,0,5.667,2.159A5.713,5.713,0,0,1,663.331,597.031Z" style="fill: #fff"/>
      <path d="M701.467,597.031a2.13,2.13,0,0,1,0,3.6,5.031,5.031,0,0,1-2.968.72H678.89a4.666,4.666,0,0,1-2.789-.72,2.13,2.13,0,0,1,0-3.6,4.348,4.348,0,0,1,2.609-.72,9.586,9.586,0,0,0,6.836-3.328q2.877-3.145,5.936-11.784l26.446-75.556q.715-2.337,2.7-2.339a2.09,2.09,0,0,1,1.53.63,2.314,2.314,0,0,1,.63,1.709,5.787,5.787,0,0,1-.36,1.619L696.7,580.66q-2.341,7.016-2.338,10.613,0,2.7,1.079,3.778a5.01,5.01,0,0,0,3.238,1.26A4.691,4.691,0,0,1,701.467,597.031Zm94.446.18a2.155,2.155,0,0,1,.99,1.8,2.017,2.017,0,0,1-.99,1.619,4.669,4.669,0,0,1-2.788.72H756.786a4.664,4.664,0,0,1-2.789-.72,2.015,2.015,0,0,1-.99-1.619,2.152,2.152,0,0,1,.99-1.8,5.691,5.691,0,0,1,2.789-.9,5.421,5.421,0,0,0,2.878-.9,3.31,3.31,0,0,0,.9-2.7,28.585,28.585,0,0,0-1.439-6.836l-9.714-28.064H715.589a2.918,2.918,0,0,1-2.158-.72,2.6,2.6,0,0,1,0-3.6,2.93,2.93,0,0,1,2.158-.719h32.022l-21.228-61.345v-.18q-2.522-6.654-4.407-8.546a8.3,8.3,0,0,0-5.127-2.248,5.631,5.631,0,0,1-2.789-.9,2.147,2.147,0,0,1-.989-1.8,1.939,1.939,0,0,1,.989-1.71,5.2,5.2,0,0,1,2.789-.629h21.407q4.137,0,5.936.989a5.826,5.826,0,0,1,2.609,2.879q.81,1.889,3.508,9.8l31.842,92.647a80.177,80.177,0,0,0,3.957,9.534,9.9,9.9,0,0,0,3.149,3.958,8.868,8.868,0,0,0,3.868,1.08A5.7,5.7,0,0,1,795.913,597.211Z" style="fill: #fff"/>
      <path d="M837.83,597.031a2.129,2.129,0,0,1,0,3.6,5.033,5.033,0,0,1-2.969.72H811.655a5.024,5.024,0,0,1-2.969-.72,2.13,2.13,0,0,1,0-3.6,4.688,4.688,0,0,1,2.789-.72q9.175-.359,9.175-16.011V508.161a3.27,3.27,0,0,1,.719-2.249,2.406,2.406,0,0,1,3.6,0,3.284,3.284,0,0,1,.718,2.249V580.3q0,15.651,9.355,16.011A4.694,4.694,0,0,1,837.83,597.031Zm78.795.18a2.156,2.156,0,0,1,.989,1.8,1.937,1.937,0,0,1-.989,1.709,5.175,5.175,0,0,1-2.788.63h-18.53q-6.3,0-9.894-2.609t-8.1-11.063l-49.652-93.367q-4.859-8.636-7.556-11.153a9.507,9.507,0,0,0-6.117-2.7,5.619,5.619,0,0,1-2.787-.9,2.144,2.144,0,0,1-.99-1.8,2.02,2.02,0,0,1,.99-1.62,4.677,4.677,0,0,1,2.787-.719h19.069a24.216,24.216,0,0,1,7.2.719,8.655,8.655,0,0,1,3.868,3.508q1.889,2.791,7.285,12.863l49.472,91.208q4.494,7.737,7.017,9.984a10.284,10.284,0,0,0,5.936,2.609A5.705,5.705,0,0,1,916.625,597.211Zm4.317-121.072a2.027,2.027,0,0,1,.99,1.62,2.151,2.151,0,0,1-.99,1.8,5.345,5.345,0,0,1-2.607.9q-9.359.363-9.355,16.011v73.038a3.264,3.264,0,0,1-.721,2.248,2.4,2.4,0,0,1-3.6,0,3.254,3.254,0,0,1-.72-2.248V496.468q0-15.651-9.175-16.011a5.334,5.334,0,0,1-2.607-.9,2.008,2.008,0,0,1-.99-1.618,2.151,2.151,0,0,1,.99-1.8,4.677,4.677,0,0,1,2.787-.719h23.208A4.69,4.69,0,0,1,920.942,476.139Z" style="fill: #fff"/>
      <path d="M1002.8,597.031a2.13,2.13,0,0,1,0,3.6,5.033,5.033,0,0,1-2.968.72H965.645a4.658,4.658,0,0,1-2.787-.72,2.129,2.129,0,0,1,0-3.6,4.34,4.34,0,0,1,2.609-.72,5.126,5.126,0,0,0,4.767-3.419q1.348-3.237,1.348-12.592V481l-10.613.179q-10.254.182-15.2,1.619t-6.386,3.419a9.008,9.008,0,0,0-1.619,4.857,5.427,5.427,0,0,1-.9,2.609,2.155,2.155,0,0,1-1.8.989,2.012,2.012,0,0,1-1.619-.989,4.664,4.664,0,0,1-.721-2.789V475.42h61.167V580.3q0,9.356,1.348,12.592a5.121,5.121,0,0,0,4.768,3.419A4.7,4.7,0,0,1,1002.8,597.031Zm29.953-121.611v15.471a4.678,4.678,0,0,1-.72,2.789,2.02,2.02,0,0,1-1.619.989,2.153,2.153,0,0,1-1.8-.989,5.355,5.355,0,0,1-.9-2.609,8.586,8.586,0,0,0-1.62-4.768q-1.441-1.889-6.386-3.417t-15.2-1.71a5.637,5.637,0,0,1-2.88-.989,2.335,2.335,0,0,1-1.079-1.889,2.577,2.577,0,0,1,1.079-1.979,4.363,4.363,0,0,1,2.88-.9Z" style="fill: #fff"/>
      <path d="M1073.224,476.049q1.619.633,1.978,3.059a88.638,88.638,0,0,1,.36,10.164V586.6a99.092,99.092,0,0,1-.36,10.7q-.363,2.61-1.978,3.328t-6.477.72h-19.429a4.666,4.666,0,0,1-2.789-.72,2.129,2.129,0,0,1,0-3.6,4.348,4.348,0,0,1,2.609-.72,5.124,5.124,0,0,0,4.767-3.419q1.35-3.237,1.35-12.592V496.468q0-9.353-1.35-12.593a5.127,5.127,0,0,0-4.767-3.418,5.349,5.349,0,0,1-2.609-.9,2.013,2.013,0,0,1-.99-1.618,2.156,2.156,0,0,1,.99-1.8,4.688,4.688,0,0,1,2.789-.719h19.249Q1071.6,475.42,1073.224,476.049Zm70.339-.629v19.069a5.191,5.191,0,0,1-.629,2.788,1.938,1.938,0,0,1-1.71.99,2.249,2.249,0,0,1-1.709-.99,4.851,4.851,0,0,1-.989-2.608,11.465,11.465,0,0,0-3.688-7.376q-2.969-2.517-13.492-4.137t-33.011-1.98a4.351,4.351,0,0,1-2.88-.9,2.354,2.354,0,0,1,0-3.958,4.367,4.367,0,0,1,2.88-.9Zm-4.048,104.07a2.26,2.26,0,0,1,1.709-.989,1.945,1.945,0,0,1,1.71.989,5.207,5.207,0,0,1,.629,2.788v19.07h-55.228a4.345,4.345,0,0,1-2.88-.9,2.354,2.354,0,0,1,0-3.958,4.367,4.367,0,0,1,2.88-.9q22.485-.359,33.011-1.979t13.492-4.137a11.46,11.46,0,0,0,3.688-7.376A4.86,4.86,0,0,1,1139.515,579.49ZM1085.636,540a2.61,2.61,0,0,1,0-3.6,2.933,2.933,0,0,1,2.159-.719h4.5q8.636,0,11.963-2.609a9.9,9.9,0,0,0,3.868-6.746,5.14,5.14,0,0,1,.989-2.789,2.4,2.4,0,0,1,1.889-.989,1.943,1.943,0,0,1,1.71.989,5.62,5.62,0,0,1,.629,2.969v23.206a4.676,4.676,0,0,1-.72,2.789,2.13,2.13,0,0,1-3.6,0,5.331,5.331,0,0,1-.9-2.608,9.148,9.148,0,0,0-3.688-6.567q-3.332-2.606-12.143-2.608h-4.5A2.925,2.925,0,0,1,1085.636,540Z" style="fill: #fff"/>
    </g>
    <g>
      <path d="M106.7,752.81a2.08,2.08,0,0,1,0,3.6,5.469,5.469,0,0,1-3.11.72H67.78a5.063,5.063,0,0,1-2.922-.72,2.078,2.078,0,0,1,0-3.6,4.715,4.715,0,0,1,2.733-.72,5.354,5.354,0,0,0,4.994-3.418Q74,745.434,74,736.079V652.247q0-9.351-1.414-12.593a5.359,5.359,0,0,0-4.994-3.418,5.776,5.776,0,0,1-2.733-.9,2,2,0,0,1-1.037-1.618,2.128,2.128,0,0,1,1.037-1.8,5.087,5.087,0,0,1,2.922-.72H87.944q5.275,0,6.974.63a3.487,3.487,0,0,1,2.072,3.058,84.5,84.5,0,0,1,.377,10.164v91.028q0,9.356,1.414,12.593a5.351,5.351,0,0,0,4.994,3.418A5.1,5.1,0,0,1,106.7,752.81ZM168.6,631.2v19.069a5,5,0,0,1-.66,2.789,2.051,2.051,0,0,1-1.791.989,2.384,2.384,0,0,1-1.79-.989,4.737,4.737,0,0,1-1.037-2.609,11.293,11.293,0,0,0-3.863-7.376q-3.109-2.517-14.134-4.137t-34.581-1.98a4.7,4.7,0,0,1-3.017-.9,2.3,2.3,0,0,1,0-3.958,4.714,4.714,0,0,1,3.017-.9Zm-36.09,48.123a2.548,2.548,0,0,1,1.978-.99,2.054,2.054,0,0,1,1.791.99,5.406,5.406,0,0,1,.66,2.968V705.5a4.515,4.515,0,0,1-.755,2.788,2.289,2.289,0,0,1-3.768,0,5.19,5.19,0,0,1-.943-2.608,9.056,9.056,0,0,0-3.863-6.567q-3.49-2.606-12.72-2.608h-4.712a3.159,3.159,0,0,1-2.262-.72,2.526,2.526,0,0,1,0-3.6,3.168,3.168,0,0,1,2.262-.719h4.712q9.045,0,12.531-2.609a9.811,9.811,0,0,0,4.052-6.746A4.985,4.985,0,0,1,132.514,679.322Z" style="fill: #fff"/>
      <path d="M222.784,752.81a2.079,2.079,0,0,1,0,3.6,5.469,5.469,0,0,1-3.11.72H183.868a5.066,5.066,0,0,1-2.922-.72,2.079,2.079,0,0,1,0-3.6,4.717,4.717,0,0,1,2.733-.72,5.354,5.354,0,0,0,4.994-3.418q1.415-3.238,1.414-12.593V652.247q0-9.351-1.414-12.593a5.359,5.359,0,0,0-4.994-3.418,5.78,5.78,0,0,1-2.733-.9,2,2,0,0,1-1.036-1.618,2.13,2.13,0,0,1,1.036-1.8,5.089,5.089,0,0,1,2.922-.72h20.164q5.275,0,6.974.63a3.487,3.487,0,0,1,2.072,3.058,84.5,84.5,0,0,1,.377,10.164v91.028q0,9.356,1.414,12.593a5.351,5.351,0,0,0,4.994,3.418A5.1,5.1,0,0,1,222.784,752.81Zm73.875,0a2.08,2.08,0,0,1,0,3.6,5.076,5.076,0,0,1-2.922.72H255.669a5.054,5.054,0,0,1-2.92-.72,2,2,0,0,1-1.037-1.619,2.126,2.126,0,0,1,1.037-1.8,6.144,6.144,0,0,1,2.92-.9q3.2-.359,3.2-2.339,0-2.159-3.581-8.275l-30.718-50.551a7.6,7.6,0,0,1-1.507-3.6q0-1.618,3.392-1.8,19.407-.717,27.043-7.645t7.633-16.1a31.481,31.481,0,0,0-2.167-12.412q-2.169-5.034-9.8-8.546t-22.709-3.687a4.3,4.3,0,0,1-2.922-.9,2.6,2.6,0,0,1-1.036-1.979,2.769,2.769,0,0,1,1.036-2.158,4.023,4.023,0,0,1,2.733-.9l6.785-.18q26.382,0,38.822,8.275t12.438,22.487q0,10.256-8.764,17.99t-25.158,10.434l30.529,50.732q4.335,6.837,6.879,8.814a10.284,10.284,0,0,0,5.936,2.159A6.179,6.179,0,0,1,296.659,752.81Z" style="fill: #fff"/>
      <path d="M336.609,752.81a2.078,2.078,0,0,1,0,3.6,5.466,5.466,0,0,1-3.109.72H312.959a5.063,5.063,0,0,1-2.922-.72,2.078,2.078,0,0,1,0-3.6,4.715,4.715,0,0,1,2.733-.72,10.227,10.227,0,0,0,7.161-3.328q3.014-3.145,6.219-11.783l27.7-75.557a2.866,2.866,0,0,1,2.826-2.339,2.208,2.208,0,0,1,2.262,2.339,5.538,5.538,0,0,1-.377,1.619l-26.949,73.4q-2.452,7.016-2.45,10.613,0,2.7,1.131,3.778a5.378,5.378,0,0,0,3.392,1.26A5.091,5.091,0,0,1,336.609,752.81Zm98.939.18a2.133,2.133,0,0,1,1.037,1.8,2.005,2.005,0,0,1-1.037,1.619,5.067,5.067,0,0,1-2.92.72H394.56a5.063,5.063,0,0,1-2.922-.72,2,2,0,0,1-1.037-1.619,2.128,2.128,0,0,1,1.037-1.8,6.156,6.156,0,0,1,2.922-.9,5.852,5.852,0,0,0,3.015-.9,3.225,3.225,0,0,0,.942-2.7,27.442,27.442,0,0,0-1.508-6.836l-10.176-28.064H351.4a3.15,3.15,0,0,1-2.261-.72,2.523,2.523,0,0,1,0-3.6,3.163,3.163,0,0,1,2.261-.719h33.545L362.71,647.21v-.18q-2.64-6.654-4.616-8.545a8.9,8.9,0,0,0-5.371-2.249,6.082,6.082,0,0,1-2.921-.9,2.124,2.124,0,0,1-1.037-1.8,1.922,1.922,0,0,1,1.037-1.709,5.645,5.645,0,0,1,2.921-.63h22.425q4.335,0,6.219.99a5.927,5.927,0,0,1,2.733,2.878q.849,1.889,3.675,9.8l33.357,92.647a78.188,78.188,0,0,0,4.145,9.534,10,10,0,0,0,3.3,3.958,9.6,9.6,0,0,0,4.052,1.08A6.166,6.166,0,0,1,435.548,752.99Z" style="fill: #fff"/>
      <path d="M479.46,752.81a2.079,2.079,0,0,1,0,3.6,5.471,5.471,0,0,1-3.111.72H452.04a5.46,5.46,0,0,1-3.111-.72,2.079,2.079,0,0,1,0-3.6,5.087,5.087,0,0,1,2.922-.72q9.611-.359,9.611-16.011V663.94a3.175,3.175,0,0,1,.753-2.249,2.6,2.6,0,0,1,3.77,0,3.189,3.189,0,0,1,.753,2.249v72.139q0,15.651,9.8,16.011A5.1,5.1,0,0,1,479.46,752.81Zm82.542.18a2.13,2.13,0,0,1,1.037,1.8A1.923,1.923,0,0,1,562,756.5a5.634,5.634,0,0,1-2.92.629H539.671q-6.6,0-10.365-2.609t-8.481-11.063l-52.013-93.367q-5.09-8.635-7.916-11.153a10.186,10.186,0,0,0-6.407-2.7,6.074,6.074,0,0,1-2.92-.9,2.12,2.12,0,0,1-1.037-1.8,2,2,0,0,1,1.037-1.619,5.075,5.075,0,0,1,2.92-.72h19.976a26.508,26.508,0,0,1,7.539.72,8.94,8.94,0,0,1,4.052,3.507q1.978,2.791,7.631,12.863L545.513,739.5q4.709,7.737,7.35,9.984a11.025,11.025,0,0,0,6.219,2.609A6.163,6.163,0,0,1,562,752.99Zm4.523-121.071a2.012,2.012,0,0,1,1.037,1.619,2.129,2.129,0,0,1-1.037,1.8,5.772,5.772,0,0,1-2.731.9q-9.8.363-9.8,16.011v73.038a3.172,3.172,0,0,1-.755,2.249,2.6,2.6,0,0,1-3.768,0,3.159,3.159,0,0,1-.755-2.249V652.247q0-15.651-9.611-16.011a5.76,5.76,0,0,1-2.731-.9,1.994,1.994,0,0,1-1.037-1.618,2.124,2.124,0,0,1,1.037-1.8,5.075,5.075,0,0,1,2.92-.72h24.311A5.088,5.088,0,0,1,566.525,631.919Z" style="fill: #fff"/>
      <path d="M645.961,749.571q15.639,0,30.717-9.175a4.95,4.95,0,0,1,2.262-.719q2.072,0,2.072,2.519a4.13,4.13,0,0,1-2.072,3.777,84.647,84.647,0,0,1-20.07,8.276,80.925,80.925,0,0,1-21.2,2.878q-20.543,0-36-8.365a58.675,58.675,0,0,1-23.839-23.387q-8.389-15.018-8.387-34.45a58.333,58.333,0,0,1,7.821-29.953A59.338,59.338,0,0,1,598,639.744a57.991,57.991,0,0,1,27.609-8.545,2.616,2.616,0,0,1,2.26.72,2.7,2.7,0,0,1,.943,1.978q0,2.523-3.392,3.239A38.824,38.824,0,0,0,600.73,655.3q-8.668,14.212-8.668,32.741a73.358,73.358,0,0,0,5.371,27.7,57.822,57.822,0,0,0,15.83,22.4,45.9,45.9,0,0,0,25.158,10.884A53.227,53.227,0,0,0,645.961,749.571Zm29.776-83.022a2.476,2.476,0,0,1-1.885.809,2.568,2.568,0,0,1-1.79-.809,3.461,3.461,0,0,1-1.037-2.069q-1.51-13.13-7.915-19.519t-22.238-8.185a4.332,4.332,0,0,1-2.356-.9,2.259,2.259,0,0,1-.848-1.8,2.691,2.691,0,0,1,.942-1.978,3.669,3.669,0,0,1,2.639-.9,149.173,149.173,0,0,1,17.9,1.529q9.423,1.35,14.322,3.688,3.2,1.441,4.052,3.328a11.049,11.049,0,0,1,.471,5.487l-1.319,18.889A4.21,4.21,0,0,1,675.737,666.549Z" style="fill: #fff"/>
      <path d="M719.647,631.829a3.487,3.487,0,0,1,2.072,3.058,84.5,84.5,0,0,1,.377,10.164v97.325a94.461,94.461,0,0,1-.377,10.7q-.38,2.61-2.072,3.328t-6.785.72H692.509a5.063,5.063,0,0,1-2.922-.72,2.078,2.078,0,0,1,0-3.6,4.715,4.715,0,0,1,2.733-.72,5.354,5.354,0,0,0,4.994-3.418q1.414-3.238,1.414-12.593V652.247q0-9.351-1.414-12.593a5.359,5.359,0,0,0-4.994-3.418,5.776,5.776,0,0,1-2.733-.9,2,2,0,0,1-1.037-1.618,2.128,2.128,0,0,1,1.037-1.8,5.087,5.087,0,0,1,2.922-.72h20.164Q717.949,631.2,719.647,631.829Zm73.686-.63v19.069a5,5,0,0,1-.66,2.789,2.051,2.051,0,0,1-1.791.989,2.384,2.384,0,0,1-1.79-.989,4.73,4.73,0,0,1-1.037-2.609,11.3,11.3,0,0,0-3.863-7.376q-3.111-2.517-14.134-4.137t-34.581-1.98a4.7,4.7,0,0,1-3.017-.9,2.3,2.3,0,0,1,0-3.958,4.714,4.714,0,0,1,3.017-.9Zm-4.241,104.07a2.393,2.393,0,0,1,1.79-.989,2.058,2.058,0,0,1,1.791.989,5.018,5.018,0,0,1,.66,2.789v19.069H735.477a4.7,4.7,0,0,1-3.017-.9,2.3,2.3,0,0,1,0-3.958,4.719,4.719,0,0,1,3.017-.9q23.554-.36,34.581-1.98t14.134-4.137a11.292,11.292,0,0,0,3.863-7.376A4.739,4.739,0,0,1,789.092,735.269Zm-56.443-39.487a2.526,2.526,0,0,1,0-3.6,3.164,3.164,0,0,1,2.262-.719h4.711q9.047,0,12.532-2.609a9.811,9.811,0,0,0,4.052-6.746,4.985,4.985,0,0,1,1.037-2.788,2.548,2.548,0,0,1,1.978-.99,2.054,2.054,0,0,1,1.791.99,5.406,5.406,0,0,1,.66,2.968V705.5a4.515,4.515,0,0,1-.755,2.788,2.289,2.289,0,0,1-3.768,0,5.181,5.181,0,0,1-.943-2.608,9.056,9.056,0,0,0-3.863-6.567q-3.49-2.606-12.721-2.608h-4.711A3.156,3.156,0,0,1,732.649,695.782Z" style="fill: #fff"/>
      <path d="M806.335,714.311a2.364,2.364,0,0,1,1.885-.9,2.741,2.741,0,0,1,1.789.719,3.1,3.1,0,0,1,1.037,1.98q1.882,15.831,9.8,25.1t24.687,10.7q3.2.182,3.2,2.339a2.429,2.429,0,0,1-.941,1.888,4.707,4.707,0,0,1-2.638.99,110.557,110.557,0,0,1-19.223-1.259q-12.064-1.62-16.772-4.138-3.207-1.8-3.958-3.688a12.2,12.2,0,0,1-.566-5.127l.754-26.085A4.682,4.682,0,0,1,806.335,714.311Zm48.245,40.3a2.186,2.186,0,0,1,.754-1.618,2.626,2.626,0,0,1,1.884-.721,31.945,31.945,0,0,0,11.024-2.968,26.44,26.44,0,0,0,9.707-7.466,17.152,17.152,0,0,0,3.957-11.153,19.906,19.906,0,0,0-.565-4.677q-1.7-7.016-9.518-12.053t-23.274-11.694q-12.436-5.4-20.353-9.534a59.03,59.03,0,0,1-14.135-10.254,28.33,28.33,0,0,1-8.291-19.789,23.425,23.425,0,0,1,6.972-17,44.5,44.5,0,0,1,16.961-10.7,59.342,59.342,0,0,1,18.846-3.778h.188a3.242,3.242,0,0,1,2.167.72,2.1,2.1,0,0,1,.848,1.619,2.693,2.693,0,0,1-.753,1.888,3.537,3.537,0,0,1-2.262.99,32.069,32.069,0,0,0-9.516,2.968,26.9,26.9,0,0,0-8.952,6.746,15.071,15.071,0,0,0-3.77,10.254,18.577,18.577,0,0,0,1.132,6.117q2.07,6.659,10.271,11.514a191,191,0,0,0,23.462,11.153q13.188,5.4,21.2,9.625a58.128,58.128,0,0,1,14.041,10.253,23.209,23.209,0,0,1,6.972,13.943,32.57,32.57,0,0,1,.188,3.958,26.588,26.588,0,0,1-7.255,18.888A44.692,44.692,0,0,1,878.8,753.349a57.638,57.638,0,0,1-19.5,3.778Q854.578,757.127,854.58,754.608Zm41.366-82.662a2.78,2.78,0,0,1-1.978.81,2.577,2.577,0,0,1-1.792-.81,3.476,3.476,0,0,1-1.036-2.069,58.053,58.053,0,0,0-3.393-16.91,23.238,23.238,0,0,0-8.95-10.885q-6.318-4.224-17.809-5.666a4.329,4.329,0,0,1-2.356-.9,2.09,2.09,0,0,1-.848-1.619,2.421,2.421,0,0,1,.942-1.888,3.921,3.921,0,0,1,2.638-.81,149.171,149.171,0,0,1,17.9,1.529q9.42,1.35,14.322,3.688,3.2,1.441,3.957,3.238a13.621,13.621,0,0,1,.566,5.577l-1.319,24.286A3.211,3.211,0,0,1,895.946,671.946Z" style="fill: #fff"/>
      <path d="M987.821,749.571q15.639,0,30.718-9.175a4.947,4.947,0,0,1,2.262-.719q2.07,0,2.072,2.519a4.132,4.132,0,0,1-2.072,3.777,84.671,84.671,0,0,1-20.071,8.276,80.912,80.912,0,0,1-21.2,2.878q-20.544,0-36-8.365A58.669,58.669,0,0,1,919.7,725.375q-8.39-15.018-8.388-34.45a58.324,58.324,0,0,1,7.822-29.953,59.328,59.328,0,0,1,20.73-21.228,57.991,57.991,0,0,1,27.609-8.545,2.619,2.619,0,0,1,2.261.72,2.7,2.7,0,0,1,.943,1.978q0,2.523-3.393,3.239A38.822,38.822,0,0,0,942.591,655.3q-8.668,14.212-8.669,32.741a73.358,73.358,0,0,0,5.371,27.7,57.814,57.814,0,0,0,15.831,22.4,45.9,45.9,0,0,0,25.158,10.884A53.213,53.213,0,0,0,987.821,749.571Zm29.776-83.022a2.474,2.474,0,0,1-1.885.809,2.572,2.572,0,0,1-1.79-.809,3.46,3.46,0,0,1-1.036-2.069q-1.512-13.13-7.915-19.519t-22.238-8.185a4.332,4.332,0,0,1-2.356-.9,2.259,2.259,0,0,1-.848-1.8,2.69,2.69,0,0,1,.941-1.978,3.672,3.672,0,0,1,2.64-.9,149.14,149.14,0,0,1,17.9,1.529q9.423,1.35,14.323,3.688,3.2,1.441,4.052,3.328a11.049,11.049,0,0,1,.471,5.487l-1.319,18.889A4.217,4.217,0,0,1,1017.6,666.549Z" style="fill: #fff"/>
      <path d="M1055.569,719.528a67.239,67.239,0,0,0,10.459,21.048q6.6,8.635,14.7,10.614,3.394.721,3.393,3.239a2.7,2.7,0,0,1-.943,1.978,2.608,2.608,0,0,1-2.261.72,49.1,49.1,0,0,1-27.327-9.444,63.147,63.147,0,0,1-19.693-23.207,66.946,66.946,0,0,1,0-60.626,62.387,62.387,0,0,1,19.693-23.117,50.65,50.65,0,0,1,27.327-9.534,2.617,2.617,0,0,1,2.261.72,2.7,2.7,0,0,1,.943,1.978q0,2.523-3.393,3.239-8.1,1.982-14.7,10.524a65.98,65.98,0,0,0-10.459,21.048,85.71,85.71,0,0,0-3.863,25.455A84.827,84.827,0,0,0,1055.569,719.528Zm85.182,4.948a62.366,62.366,0,0,1-19.694,23.117,50.6,50.6,0,0,1-27.325,9.534,2.605,2.605,0,0,1-2.262-.72,2.686,2.686,0,0,1-.942-1.978q0-2.519,3.393-3.239,8.1-1.977,14.7-10.524a66,66,0,0,0,10.46-21.048,85.8,85.8,0,0,0,0-50.91,66.043,66.043,0,0,0-10.46-21.048q-6.6-8.542-14.7-10.524-3.393-.717-3.393-3.239a2.691,2.691,0,0,1,.942-1.978,2.614,2.614,0,0,1,2.262-.72,50.646,50.646,0,0,1,27.325,9.534,62.39,62.39,0,0,1,19.694,23.117,66.946,66.946,0,0,1,0,60.626Z" style="fill: #fff"/>
    </g>
  </g>
</svg>
