<svg xmlns="http://www.w3.org/2000/svg" xmlns:xlink="http://www.w3.org/1999/xlink" viewBox="0,0,256,256" width="24px" height="24px"><g fill="#ffffff" fill-rule="nonzero" stroke="none" stroke-width="1" stroke-linecap="butt" stroke-linejoin="miter" stroke-miterlimit="10" stroke-dasharray="" stroke-dashoffset="0" font-family="none" font-weight="none" font-size="none" text-anchor="none" style="mix-blend-mode: normal"><g transform="scale(10.66667,10.66667)"><path d="M12,6c-1.90234,0 -3.67578,0.36719 -5.1875,1h-4.8125c0,0 1.14063,1.39453 1.27734,2.69141c-0.78516,0.88281 -1.27734,2.03516 -1.27734,3.30859c0,2.76172 2.23828,5 5,5c1.37891,0 2.62891,-0.55859 3.53516,-1.46484l1.46484,1.46484l1.46484,-1.46484c0.90625,0.90625 2.15625,1.46484 3.53516,1.46484c2.76172,0 5,-2.23828 5,-5c0,-1.27344 -0.49219,-2.42578 -1.27734,-3.30859c0.13672,-1.29687 1.27734,-2.69141 1.27734,-2.69141h-4.82422c-1.50781,-0.63281 -3.27734,-1 -5.17578,-1zM12,8c1.05469,0 2.07813,0.15234 3.03125,0.40625c-1.78125,0.76563 -3.03125,2.53125 -3.03125,4.59375c0,-2.07031 -1.25781,-3.84375 -3.05078,-4.60547c0.96094,-0.25391 1.99219,-0.39453 3.05078,-0.39453zM7,10c1.65625,0 3,1.34375 3,3c0,1.65625 -1.34375,3 -3,3c-1.65625,0 -3,-1.34375 -3,-3c0,-1.65625 1.34375,-3 3,-3zM17,10c1.65625,0 3,1.34375 3,3c0,1.65625 -1.34375,3 -3,3c-1.65625,0 -3,-1.34375 -3,-3c0,-1.65625 1.34375,-3 3,-3zM7,12c-0.55078,0 -1,0.44922 -1,1c0,0.55078 0.44922,1 1,1c0.55078,0 1,-0.44922 1,-1c0,-0.55078 -0.44922,-1 -1,-1zM17,12c-0.55078,0 -1,0.44922 -1,1c0,0.55078 0.44922,1 1,1c0.55078,0 1,-0.44922 1,-1c0,-0.55078 -0.44922,-1 -1,-1z"></path></g></g></svg>